<?xml version="1.0" encoding="UTF-8"?>
<svg width="120px" height="120px" viewBox="0 0 120 120" version="1.1" xmlns="http://www.w3.org/2000/svg" xmlns:xlink="http://www.w3.org/1999/xlink">
    <!-- Generator: Sketch 58 (84663) - https://sketch.com -->
    <title>icon-backend-mongodb</title>
    <desc>Created with Sketch.</desc>
    <g id="Tools" stroke="none" stroke-width="1" fill="none" fill-rule="evenodd">
        <g id="12.9″-iPad-Pro-Copy" transform="translate(-1127.000000, -1199.000000)">
            <g id="icon-backend-mongodb" transform="translate(1127.000000, 1199.000000)">
                <g id="icon-bg-white" fill="#FFFFFF">
                    <rect x="0" y="0" width="120" height="120" rx="28"></rect>
                </g>
                <g id="MongoDB_Logo" stroke-width="1" transform="translate(14.000000, 73.000000)" fill="#21313C">
                    <path d="M70.0985129,12.5013362 C70.5726724,12.8804526 71.5199353,13.0367457 72.3552586,13.0367457 C73.437694,13.0367457 74.4990086,12.8360991 75.5360345,11.8993966 C76.592069,10.9394612 77.3186207,9.47051724 77.3186207,7.12506466 C77.3186207,4.87148707 76.4611207,3.04243534 74.7017672,1.97161638 C73.7090948,1.3475 72.4228448,1.10144397 70.9560129,1.10144397 C70.5335991,1.10144397 70.0985129,1.12362069 69.8514009,1.23556034 C69.7500916,1.3155325 69.6783653,1.42702414 69.6475862,1.55237069 C69.6032328,1.95366379 69.6032328,5.00982759 69.6032328,6.81670259 C69.6032328,8.66898707 69.6032328,11.2520474 69.6475862,11.5688578 C69.670819,11.8370905 69.8059914,12.3080819 70.0985129,12.5055603 M65.5955819,0.0982112069 C65.9789224,0.0982112069 67.43625,0.164741379 68.1142241,0.164741379 C69.3814655,0.164741379 70.2569181,0.0982112069 72.6256034,0.0982112069 C74.6109483,0.0982112069 76.2815948,0.63362069 77.4759698,1.65903017 C78.920625,2.909375 79.6936422,4.64866379 79.6936422,6.768125 C79.6936422,9.77993534 78.3207974,11.5202802 76.9405603,12.5013362 C75.5677155,13.5278017 73.7819612,14.1075647 71.2379741,14.1075647 C69.8841379,14.1075647 67.559806,14.0632112 65.6198707,14.0410345 L65.5797414,14.0410345 C65.4889224,13.8625647 65.7455388,13.1666379 65.903944,13.1486853 C66.4319612,13.0895474 66.5713578,13.0684267 66.8142457,12.9681034 C67.2239871,12.800194 67.3200862,12.5910991 67.3654957,11.8550431 C67.4330819,10.4716379 67.4109052,8.82105603 67.4109052,6.94659483 C67.4109052,5.60859914 67.4330819,2.9980819 67.3887284,2.17226293 C67.3200862,1.48161638 67.0286207,1.30314655 66.4382974,1.16903017 C66.0196701,1.08010313 65.5966787,1.01312949 65.171056,0.968383621 C65.1267026,0.834267241 65.4730819,0.229159483 65.5860776,0.0982112069" id="Shape" fill-rule="nonzero"></path>
                    <path d="M85.2853448,1.23028017 C85.1955819,1.2524569 85.0825862,1.47633621 85.0825862,1.58721983 C85.0593534,2.39086207 85.0371767,4.48709052 85.0371767,5.93702586 C85.0488558,5.99369324 85.0933979,6.03781907 85.1501724,6.04896552 C85.442694,6.07114224 86.1650216,6.094375 86.7743534,6.094375 C87.6318534,6.094375 88.1281897,5.98243534 88.3985345,5.84831897 C89.1208621,5.49137931 89.454569,4.70991379 89.454569,3.86297414 C89.454569,1.92198276 88.1007328,1.18592672 86.0932112,1.18592672 C85.8218263,1.1824982 85.5505179,1.19731609 85.2811207,1.23028017 M90.4028879,10.1537716 C90.4028879,8.19060345 88.9582328,7.07543103 86.3181466,7.07543103 C86.2062069,7.07543103 85.3677155,7.05325431 85.168125,7.09760776 C85.1005388,7.11978448 85.0329526,7.16413793 85.0329526,7.20954741 C85.0329526,8.61512931 85.0097198,10.8676509 85.0783621,11.76 C85.1237716,12.1391164 85.3951724,12.6745259 85.7320474,12.830819 C86.0932112,13.0314655 86.9053017,13.075819 87.4692241,13.075819 C89.025819,13.075819 90.4028879,12.2067026 90.4028879,10.1537716 M81.2090517,0.137284483 C81.4128664,0.137284483 82.012694,0.203814655 83.5471121,0.203814655 C84.9907112,0.203814655 86.1639655,0.159461207 87.5600431,0.159461207 C89.2972198,0.159461207 91.6880819,0.784633621 91.6880819,3.3719181 C91.6880819,4.63915948 90.7862284,5.66984914 89.6129741,6.16090517 C89.5453879,6.1830819 89.5453879,6.22743534 89.6129741,6.24961207 C91.2825647,6.67202586 92.7483405,7.69954741 92.7483405,9.66271552 C92.7483405,11.5815302 91.5529095,12.7864655 89.8157328,13.5446983 C88.7596983,14.0135776 87.4470474,14.1688147 86.1196121,14.1688147 C85.1047629,14.1688147 82.3844181,14.0632112 80.8721767,14.0801078 C80.7137716,14.0135776 81.0168534,13.2986422 81.1520259,13.1877586 C81.4984815,13.1771072 81.8422465,13.1231833 82.1753233,13.0272414 C82.7160129,12.894181 82.780431,12.7199353 82.8480172,11.9162931 C82.8934267,11.2245905 82.8934267,8.74818966 82.8934267,6.9856681 C82.8934267,4.57579741 82.9166595,2.94844828 82.8934267,2.14480603 C82.87125,1.52068966 82.6452586,1.31898707 82.2165086,1.20810345 C81.8785776,1.14051724 81.3146552,1.07398707 80.8637284,1.0074569 C80.7507328,0.895517241 81.0981681,0.225991379 81.2101078,0.137284483" id="Shape" fill-rule="nonzero"></path>
                    <path d="M0.290409483,14.0980603 C0.232303857,13.9552636 0.208783343,13.8007519 0.221767241,13.6471336 C0.216706139,13.5424219 0.240447228,13.4383263 0.290409483,13.3461638 C0.582210453,13.304081 0.871340327,13.2451972 1.15635776,13.169806 C1.55553879,13.0705388 1.70549569,12.8529957 1.72872845,12.3439871 C1.79420259,11.1411638 1.79842672,8.8844181 1.77519397,7.29825431 L1.77519397,7.25178879 C1.77519397,7.08071121 1.77519397,6.84838362 1.56398707,6.68469828 C1.1927673,6.45180238 0.789747824,6.27394736 0.3675,6.15668103 C0.178469828,6.10071121 0.0739224138,6.00144397 0.0792025862,5.88528017 C0.0844827586,5.76911638 0.203814655,5.6318319 0.44987069,5.58325431 C1.10355603,5.51672414 2.81644397,5.10803879 3.48913793,4.79756466 C3.55840674,4.88783617 3.59052214,5.00118463 3.57890086,5.114375 C3.57890086,5.18407328 3.56834052,5.25799569 3.56094828,5.33403017 C3.54193966,5.55790948 3.52081897,5.81241379 3.52081897,6.06586207 C3.52925619,6.12866332 3.57253864,6.18126566 3.63253953,6.20163909 C3.69254043,6.22201253 3.75890368,6.20664064 3.80383621,6.16196121 C5.08480603,5.15767241 6.23271552,4.79967672 6.82092672,4.79967672 C7.78931034,4.79967672 8.54331897,5.26221983 9.12730603,6.21476293 C9.15453551,6.26152689 9.20415196,6.29073657 9.25825431,6.29185345 C9.30734314,6.29139563 9.35309956,6.26693961 9.38075431,6.22637931 C10.5582328,5.33297414 11.7251509,4.79967672 12.5066164,4.79967672 C14.3525647,4.79967672 15.4561207,6.18202586 15.4561207,8.49579741 C15.4561207,9.16109914 15.4497845,10.0048707 15.4434483,10.7916164 C15.4381681,11.4822629 15.4328879,12.1296121 15.4328879,12.5773707 C15.4328879,12.6829741 15.5786207,12.9871121 15.7972198,13.047306 C16.0675647,13.1793103 16.4572414,13.2468966 16.9504095,13.3313793 L16.9694181,13.3313793 C17.0063793,13.4644397 16.9282328,13.9808405 16.8532543,14.086444 C16.7307543,14.086444 16.5617888,14.0758836 16.3505819,14.0653233 C15.9672414,14.0463147 15.4413362,14.0199138 14.8298922,14.0199138 C13.6027802,14.0199138 12.9617672,14.0431466 12.3492672,14.0832759 C12.3028017,13.9301509 12.2869612,13.4359267 12.342931,13.3324353 C12.5965758,13.2927703 12.8476479,13.2381128 13.0948276,13.16875 C13.4855603,13.0399138 13.598556,12.8625 13.6228448,12.3439871 C13.6323491,11.975431 13.7031034,8.728125 13.5774353,7.95721983 C13.4612716,7.15780172 12.8593319,6.22215517 11.5424569,6.22215517 C11.0535129,6.22215517 10.2646552,6.42596983 9.51275862,6.99622845 C9.46612,7.04909321 9.43990348,7.11688164 9.43883621,7.18737069 L9.43883621,7.20321121 C9.5275431,7.61928879 9.5275431,8.10506466 9.5275431,8.83900862 C9.5275431,9.26142241 9.5275431,9.70178879 9.52226293,10.1421552 C9.51698276,11.0376724 9.51275862,11.8825 9.5275431,12.5214009 C9.5275431,12.9564871 9.79049569,13.0610345 10.0027586,13.1444612 C10.1178664,13.169806 10.2086853,13.1919828 10.3005603,13.2131034 C10.4769181,13.2564009 10.6606681,13.3007543 10.934181,13.3440517 C10.9746685,13.5295684 10.9710514,13.7219979 10.9236207,13.9058621 C10.9124289,13.9748643 10.8853109,14.0403091 10.8444181,14.0970043 C10.1622198,14.0737716 9.46206897,14.0537069 8.45144397,14.0537069 C8.14519397,14.0537069 7.64568966,14.0663793 7.20426724,14.0779957 C6.84627155,14.0875 6.50834052,14.0970043 6.31614224,14.0980603 C6.26416278,13.9754015 6.24104002,13.8424456 6.24855603,13.7094397 C6.23776742,13.5841171 6.26227699,13.4582769 6.31931034,13.3461638 L6.59071121,13.2965302 C6.82726293,13.2542888 7.03213362,13.2183836 7.2243319,13.169806 C7.55803879,13.0642026 7.6837069,12.8825647 7.70799569,12.4569828 C7.77346983,11.4643103 7.82415948,8.60351293 7.6837069,7.88752155 C7.4450431,6.73855603 6.79135776,6.155625 5.73954741,6.155625 C5.12387931,6.155625 4.3455819,6.45237069 3.70984914,6.92864224 C3.58622586,7.04901273 3.51847058,7.21552993 3.52293103,7.38801724 C3.52293103,7.72911638 3.52293103,8.13463362 3.52293103,8.56971983 C3.52293103,10.0059267 3.51342672,11.7937931 3.54827586,12.5668103 C3.56939655,12.8054741 3.65387931,13.0884914 4.1005819,13.1919828 C4.1987931,13.2204957 4.36775862,13.2479526 4.56418103,13.2806897 C4.67717672,13.2996983 4.80073276,13.3197629 4.92851293,13.3429957 C4.96913523,13.5958754 4.94849285,13.8548105 4.86831897,14.0980603 C4.67189655,14.0980603 4.43006466,14.0853879 4.15338362,14.0737716 C3.73096983,14.0547629 3.20295259,14.0315302 2.6062931,14.0315302 C1.90086207,14.0315302 1.40980603,14.0547629 1.01590517,14.0737716 C0.750840517,14.086444 0.521681034,14.0970043 0.292521552,14.0980603" id="Path" fill-rule="nonzero"></path>
                    <path d="M22.937069,5.7543319 C22.5559204,5.74641714 22.1810112,5.85190628 21.8599138,6.05741379 C21.0763362,6.53368534 20.6771552,7.48517241 20.6771552,8.88336207 C20.6771552,11.5002155 21.987694,13.3282112 23.8642672,13.3282112 C24.3674299,13.344166 24.858206,13.1703966 25.2392241,12.8413793 C25.815819,12.371444 26.122069,11.4104526 26.122069,10.0650647 C26.122069,7.48728448 24.8410991,5.7543319 22.9349569,5.7543319 M23.2961207,14.2987069 C19.90625,14.2987069 18.6992026,11.8117457 18.6992026,9.48530172 C18.6992026,7.86006466 19.3634483,6.58965517 20.6739871,5.70786638 C21.5919009,5.13960644 22.6455213,4.82815202 23.7248707,4.80601293 C26.3110991,4.80601293 28.1179741,6.66568966 28.1179741,9.33006466 C28.1179741,11.1401078 27.3967026,12.5699784 26.03125,13.4633836 C25.3754526,13.8646767 24.2359914,14.2987069 23.2961207,14.2987069" id="Shape" fill-rule="nonzero"></path>
                    <path d="M57.4482759,5.7543319 C57.0663714,5.74567523 56.6905748,5.85120714 56.3690086,6.05741379 C55.585431,6.53368534 55.18625,7.48517241 55.18625,8.88336207 C55.18625,11.5002155 56.4967888,13.3282112 58.3733621,13.3282112 C58.8779664,13.3452369 59.3704414,13.1714 59.7525431,12.8413793 C60.3291379,12.371444 60.6343319,11.4104526 60.6343319,10.0650647 C60.6343319,7.48728448 59.3544181,5.7543319 57.4482759,5.7543319 M57.8094397,14.2987069 C54.419569,14.2987069 53.2125216,11.8117457 53.2125216,9.48635776 C53.2125216,7.85900862 53.8767672,6.58965517 55.1883621,5.70786638 C56.1057342,5.13926317 57.1591124,4.82777252 58.2381897,4.80601293 C60.8244181,4.80601293 62.6312931,6.66674569 62.6312931,9.32900862 C62.6312931,11.1411638 61.9100216,12.5699784 60.544569,13.4623276 C59.8887716,13.8646767 58.7493103,14.2987069 57.8094397,14.2987069" id="Shape" fill-rule="nonzero"></path>
                    <path d="M46.0346552,5.665625 C44.9902371,5.665625 44.314375,6.49038793 44.314375,7.76713362 C44.314375,9.04387931 44.89625,10.5614009 46.5320474,10.5614009 C46.8129526,10.5614009 47.3219612,10.4367888 47.5743534,10.1590517 C47.9545259,9.80950431 48.2079741,9.08717672 48.2079741,8.32471983 C48.2079741,6.65935345 47.3969397,5.665625 46.0399353,5.665625 M45.9047629,14.4771767 C45.6097002,14.4739571 45.3187696,14.5466897 45.0599353,14.6883836 C44.2330603,15.2164009 43.8497198,15.7444181 43.8497198,16.3579741 C43.8497198,16.9324569 44.0725431,17.3897198 44.5519828,17.7952371 C45.1328017,18.2873491 45.9163793,18.527069 46.9460129,18.527069 C48.9725431,18.527069 49.8807328,17.4372414 49.8807328,16.3579741 C49.8807328,15.6060776 49.5037284,15.1023491 48.7275431,14.8172198 C48.1298276,14.5986207 47.130819,14.4782328 45.907931,14.4782328 M46.0431034,19.6528017 C44.8265517,19.6528017 43.9500431,19.3961853 43.2013147,18.8195905 C42.4726509,18.2577802 42.1452802,17.4235129 42.1452802,16.8469181 C42.1531639,16.4753434 42.2949105,16.119102 42.5444612,15.8436853 C42.7556681,15.6029095 43.2467241,15.1519828 44.3819612,14.3715733 C44.4179383,14.3562758 44.4412418,14.3209044 44.4410991,14.2818103 C44.441845,14.2378502 44.4120154,14.1992471 44.3692888,14.1888793 C43.4346983,13.8308836 43.1527371,13.2384483 43.0671983,12.9216379 C43.0671983,12.9100216 43.0671983,12.892069 43.057694,12.8720043 C43.0312931,12.7473922 43.0059483,12.6291164 43.1759698,12.5076724 C43.3069181,12.4147414 43.5160129,12.2901293 43.7398922,12.158125 C44.0559291,11.9831823 44.3590771,11.7859067 44.6470259,11.5678017 C44.6783961,11.5340912 44.6924043,11.4877631 44.6849679,11.4423187 C44.6775316,11.3968744 44.6494875,11.3574275 44.6090086,11.3354741 C43.2256034,10.870819 42.5286207,9.84329741 42.5286207,8.27297414 C42.5200038,7.27915993 42.9969991,6.34369733 43.8064224,5.76700431 C44.3629526,5.32663793 45.7600862,4.79756466 46.6651078,4.79756466 L46.7179095,4.79756466 C47.6482759,4.81974138 48.173125,5.01510776 48.8996767,5.28334052 C49.3129681,5.43278059 49.7508975,5.50230457 50.1901509,5.48821121 C50.96,5.48821121 51.296875,5.24426724 51.5862284,4.96019397 C51.6331507,5.08814809 51.6581425,5.22310349 51.6601509,5.359375 C51.6778282,5.68407447 51.5896299,6.00573886 51.4088147,6.27601293 C51.2514655,6.49461207 50.8807974,6.65301724 50.5418103,6.65301724 C50.5069612,6.65301724 50.4731681,6.65301724 50.4362069,6.64773707 C50.2578377,6.63517846 50.0810498,6.60583166 49.9081897,6.56008621 L49.8215948,6.59071121 C49.7941379,6.63084052 49.8120905,6.67519397 49.8342672,6.73221983 C49.839683,6.74336764 49.8439298,6.7550463 49.8469397,6.76706897 C49.9087469,7.04891488 49.950739,7.33474347 49.9726078,7.6224569 C49.9726078,9.26459052 49.3252586,9.97952586 48.6251078,10.5096552 C47.9481891,11.0175668 47.1442768,11.3289001 46.3018319,11.4093966 L46.3018319,11.4093966 C46.2838793,11.4093966 46.1962284,11.4167888 46.0314871,11.4315733 C45.9258836,11.4410776 45.7885991,11.45375 45.7685345,11.45375 L45.7484698,11.45375 C45.5964009,11.4959914 45.1993319,11.6850216 45.1993319,12.036681 C45.1993319,12.3281466 45.3788578,12.6903664 46.2374138,12.7558405 L46.7928879,12.7949138 C47.9249569,12.8741164 49.3389871,12.9723276 50.0042888,13.1972629 C50.9094741,13.5155599 51.508468,14.3785028 51.4901293,15.3378448 C51.4901293,16.8110129 50.4425431,18.1965302 48.6884698,19.0434698 C47.8612866,19.4385705 46.9555703,19.6418062 46.0388793,19.6380172" id="Shape" fill-rule="nonzero"></path>
                    <path d="M40.85375,13.3123707 C40.3574138,13.2458405 39.995194,13.1782543 39.5675,12.9776078 C39.4835702,12.8906687 39.4282882,12.7801047 39.4090948,12.6607974 C39.3636853,11.9690948 39.3636853,9.96157328 39.3636853,8.64786638 C39.3636853,7.57599138 39.1841595,6.64140086 38.7300647,5.97081897 C38.188319,5.21153017 37.4216379,4.76588362 36.4289655,4.76588362 C35.5492888,4.76588362 34.3760345,5.36782328 33.4065948,6.19364224 C33.3833621,6.21581897 33.2344612,6.35732759 33.2376293,6.13767241 C33.2407974,5.91801724 33.2745905,5.47237069 33.2957112,5.18724138 C33.314732,5.03362994 33.2598943,4.88008419 33.1478664,4.77327586 C32.5142457,5.09008621 30.7369397,5.5125 30.0790302,5.5769181 C29.5995905,5.66984914 29.4781466,6.13133621 29.9903233,6.29079741 L29.9977155,6.29079741 C30.4076967,6.40384963 30.7990194,6.5760316 31.1593534,6.8019181 C31.3621121,6.95821121 31.3399353,7.18103448 31.3399353,7.35950431 C31.3621121,8.8537931 31.3621121,11.1517241 31.2945259,12.4010129 C31.2723491,12.892069 31.1361207,13.0705388 30.7749569,13.1603017 L30.80875,13.1486853 C30.5337215,13.2176081 30.2547692,13.2698015 29.9734267,13.3049784 C29.860431,13.4158621 29.860431,14.0632112 29.9734267,14.1973276 C30.1994181,14.1973276 31.3462716,14.1307974 32.2967026,14.1307974 C33.6040733,14.1307974 34.2809914,14.1973276 34.6199784,14.1973276 C34.7562069,14.0410345 34.8005603,13.4390948 34.7107974,13.3049784 C34.3984227,13.2908522 34.0882049,13.2459289 33.7846552,13.1708621 C33.4245474,13.0821552 33.3337284,12.9026293 33.3115517,12.5023922 C33.2671983,11.452694 33.2671983,9.22234914 33.2671983,7.70482759 C33.2671983,7.28241379 33.3791379,7.08071121 33.5143103,6.96560345 C33.9652371,6.56431034 34.7107974,6.29713362 35.3644828,6.29713362 C35.9981034,6.29713362 36.4205172,6.49778017 36.7373276,6.7649569 C37.1063355,7.08694321 37.3376766,7.53828522 37.3836207,8.02586207 C37.4733836,8.87068966 37.4501509,10.5698491 37.4501509,12.0387931 C37.4501509,12.8424353 37.3836207,13.0441379 37.0900431,13.1328448 C36.9548707,13.199375 36.5937069,13.2669612 36.1649569,13.3113147 C36.0297845,13.445431 36.0741379,14.0695474 36.1649569,14.2036638 C36.751056,14.2036638 37.4321983,14.1371336 38.4206466,14.1371336 C39.6614871,14.1371336 40.4514009,14.2036638 40.7671552,14.2036638 C40.9023276,14.0473707 40.9477371,13.4644397 40.8579741,13.3113147" id="Path" fill-rule="nonzero"></path>
                </g>
                <g id="MongoDB_Logo" stroke-width="1" transform="translate(49.000000, 26.000000)">
                    <path d="M20.5896183,18.6499237 C18.1353435,7.82290076 13.02,4.94061069 11.7151145,2.90312977 C11.1770389,2.00556961 10.7003755,1.07259468 10.2883969,0.110610687 C10.2194656,1.07244275 10.0928244,1.67839695 9.27526718,2.40778626 C7.63374046,3.87137405 0.662061069,9.55259542 0.0753435115,21.8544275 C-0.47129771,33.3242748 8.50740458,40.3969466 9.69366412,41.1279389 C10.6058015,41.5767939 11.7167176,41.1375573 12.2585496,40.7255725 C16.5867939,37.7551145 22.500458,29.8360305 20.5944275,18.6499237" id="Path" fill="#10AA50" fill-rule="nonzero"></path>
                    <path d="M10.6603053,35.0203053 C10.4342748,37.859313 10.2723664,39.508855 9.69847328,41.131145 C9.69847328,41.131145 10.0751908,43.8338931 10.3396947,46.6969466 L11.2758779,46.6969466 C11.4991887,44.6808187 11.8401518,42.6794668 12.2970229,40.7031298 C11.0851145,40.1067939 10.7067939,37.5114504 10.6603053,35.0203053 Z" id="Path" fill="#B8C4C2" fill-rule="nonzero"></path>
                    <path d="M12.2954198,40.7047328 L12.2954198,40.7047328 C11.070687,40.138855 10.7164122,37.4890076 10.6619084,35.0203053 C10.9647894,30.9480025 11.0530796,26.8625782 10.9264122,22.7809924 C10.8622901,20.639313 10.9568702,2.94480916 10.3990076,0.354274809 C10.7806163,1.23166245 11.2202935,2.08263331 11.7151145,2.90152672 C13.02,4.94061069 18.1369466,7.82290076 20.5896183,18.6499237 C22.500458,29.8167939 16.618855,37.7150382 12.2954198,40.7047328 Z" id="Path" fill="#12924F" fill-rule="nonzero"></path>
                </g>
            </g>
        </g>
    </g>
</svg>